<svg xmlns="http://www.w3.org/2000/svg" width="286.159" height="291.367" viewBox="0 0 286.159 291.367">
  <g id="layer1" transform="translate(-6.994 -65.739)">
    <g id="g902" transform="translate(6.994 65.739)">
      <g id="g912" transform="translate(0 0)">
        <g id="g267" transform="translate(0 0)">
          <g id="g236" transform="translate(0 0)">
            <g id="g257" transform="translate(0 0)">
              <path id="path853-4-1" d="M103.231-13.4-11.474,126.884l115.88,144.583c41.323-8.306,72.9-66.617,74.358-137.306l.351-4.271.877-.075h58.693V134.8l36-8.988-36-8.986v5.594l-59.952.34c-1.861-70.9-33.972-128.814-75.5-136.159Zm.5,4.282c26.558,29.507,43.152,78.565,44.666,132.049l-151.9.859Zm45.18,138.96c3.628,3.04-15.714,102.609-41.457,136.753L74,224.944l-.085.107L-2.246,130.326Z" transform="translate(11.474 15.721)" fill="#01678d"/>
              <rect id="rect198-5" width="175.078" height="12.199" transform="translate(125.351 7.647) rotate(128.819)" fill="#01678d"/>
              <rect id="rect230" width="243.089" height="17.718" transform="translate(7.921 132.61)" fill="#01678d"/>
              <rect id="rect198-5-5" width="181.784" height="12.629" transform="matrix(0.61, 0.792, -0.792, 0.61, 15.383, 139.609)" fill="#01678d"/>
            </g>
          </g>
        </g>
      </g>
    </g>
  </g>
</svg>
